<svg viewBox="0 0 200 450" xmlns="http://www.w3.org/2000/svg">
  <path fill="currentColor" d="M100 20 C116.5 20 130 33.5 130 50 C130 66.5 116.5 80 100 80 C83.5 80 70 66.5 70 50 C70 33.5 83.5 20 100 20 Z M145 95 C160 100 170 115 172 130 L180 210 C182 230 160 235 155 215 L148 150 L145 230 L145 310 C145 320 148 400 150 420 C152 440 125 440 125 420 L122 310 L100 260 L78 310 L75 420 C75 440 48 440 50 420 C52 400 55 320 55 310 L55 230 L52 150 L45 215 C40 235 18 230 20 210 L28 130 C30 115 40 100 55 95 C70 90 130 90 145 95 Z" />
</svg>