<svg viewBox="0 0 512 512" xmlns="http://www.w3.org/2000/svg">
  <!-- Simplified Head Bust with cleaner ears -->
  <path d="M256 60 C 200 60, 160 100, 160 170 C 160 185, 162 195, 150 205 C 140 215, 140 235, 150 245 C 160 255, 165 250, 165 265 C 165 315, 215 355, 235 360 L 235 400 C 185 410, 135 430, 125 450 L 387 450 C 377 430, 327 410, 277 400 L 277 360 C 297 355, 347 315, 347 265 C 347 250, 352 255, 362 245 C 372 235, 372 215, 362 205 C 350 195, 352 185, 352 170 C 352 100, 312 60, 256 60 Z" fill="currentColor"/>
</svg>