<svg viewBox="0 0 512 512" xmlns="http://www.w3.org/2000/svg">
  <path fill="currentColor" fill-rule="evenodd" d="
    M 210 60
    L 302 60
    C 302 60, 330 65, 350 90
    C 370 115, 390 120, 420 135
    C 450 150, 460 180, 460 220
    L 460 260
    L 390 260
    C 390 260, 400 240, 380 230
    C 360 220, 360 250, 355 280
    L 350 440
    C 350 450, 340 460, 256 460
    C 172 460, 162 450, 162 440
    L 157 280
    C 152 250, 152 220, 132 230
    C 112 240, 122 260, 122 260
    L 52 260
    L 52 220
    C 52 180, 62 150, 92 135
    C 122 120, 142 115, 162 90
    C 182 65, 210 60, 210 60
    Z
    
    M 180 280
    C 200 300, 240 300, 256 290
    C 272 300, 312 300, 332 280
    C 312 290, 272 290, 256 280
    C 240 290, 200 290, 180 280
    Z
  "/>
</svg>